# xmcd
#
# Track frame offsets:
#	182
#	11292
#	21952
#	35175
#	50212
#	60970
#	74447
#	86020
#	99917
#	114070
#	124725
#	139850
#	150607
#	166152
#	179275
#	192710
#	206922
#	222242
#
# Disc length: 3191 seconds
#
# Revision: 0
# Processed by: cddbd v1.5.1PL0 Copyright (c) Steve Scherf et al.
# Submitted via: dBpowerAMP V4.0
#
DISCID=fe0c7512
DTITLE=Kenny Rogers - Kenny Rogers
DYEAR=1980
DGENRE=Country
TTITLE0=Always Leaving, Always Gone
TTITLE1=Trying Just As Hard
TTITLE2=Ruby Don't Take Your Love To Town
TTITLE3=Heed The Call
TTITLE4=We All Got To Help Each Other
TTITLE5=Shine On Ruby Mountain
TTITLE6=Me ANd Bobby McGee
TTITLE7=I'm Gonna Sing You A Sad Song Susy
TTITLE8=Sunshine
TTITLE9=Ticket To Nowhere
TTITLE10=Conditions (Just Dropped In)
TTITLE11=She Even Woke Me Up To Say Goodbye
TTITLE12=My Washington Woman
TTITLE13=Run Thru Your Mind
TTITLE14=Sleep Comes Easy
TTITLE15=Loser
TTITLE16=For The Good Times
TTITLE17=Somenthing's Burning
EXTD=
EXTT0=
EXTT1=
EXTT2=
EXTT3=
EXTT4=
EXTT5=
EXTT6=
EXTT7=
EXTT8=
EXTT9=
EXTT10=
EXTT11=
EXTT12=
EXTT13=
EXTT14=
EXTT15=
EXTT16=
EXTT17=
PLAYORDER=
